<svg width="512" height="512" viewBox="0 0 512 512" fill="none" xmlns="http://www.w3.org/2000/svg">
  <path d="M256 0C114.615 0 0 114.615 0 256C0 397.385 114.615 512 256 512C397.385 512 512 397.385 512 256C512 114.615 397.385 0 256 0ZM256 464C141.309 464 48 370.691 48 256C48 141.309 141.309 48 256 48C370.691 48 464 141.309 464 256C464 370.691 370.691 464 256 464Z" fill="#003232"/>
  <path d="M256 96C167.635 96 96 167.635 96 256C96 344.365 167.635 416 256 416C344.365 416 416 344.365 416 256C416 167.635 344.365 96 256 96ZM256 368C194.144 368 144 317.856 144 256C144 194.144 194.144 144 256 144C317.856 144 368 194.144 368 256C368 317.856 317.856 368 256 368Z" fill="#003232"/>
  <circle cx="256" cy="256" r="64" fill="#003232"/>
</svg> 