<svg width="512" height="512" viewBox="0 0 512 512" fill="none" xmlns="http://www.w3.org/2000/svg">
  <path d="M256 0C114.615 0 0 114.615 0 256C0 397.385 114.615 512 256 512C397.385 512 512 397.385 512 256C512 114.615 397.385 0 256 0ZM381.209 321.478L331.313 371.374C329.832 372.855 327.992 373.596 326.152 373.596C324.312 373.596 322.472 372.855 320.991 371.374L256 306.383L191.009 371.374C189.528 372.855 187.688 373.596 185.848 373.596C184.008 373.596 182.168 372.855 180.687 371.374L130.791 321.478C127.829 318.516 127.829 313.633 130.791 310.671L195.782 245.68L130.791 180.689C127.829 177.727 127.829 172.844 130.791 169.882L180.687 119.986C183.649 117.024 188.532 117.024 191.494 119.986L256 184.977L320.991 119.986C323.953 117.024 328.836 117.024 331.798 119.986L381.694 169.882C384.656 172.844 384.656 177.727 381.694 180.689L316.703 245.68L381.694 310.671C384.171 313.633 384.171 318.516 381.209 321.478Z" fill="#F71963"/>
</svg> 