<?xml version="1.0" encoding="UTF-8"?>
<svg width="400" height="400" viewBox="0 0 400 400" fill="none" xmlns="http://www.w3.org/2000/svg">
  <rect x="50" y="50" width="300" height="300" rx="40" fill="#003232"/>
  <path d="M200 120C155.817 120 120 155.817 120 200C120 244.183 155.817 280 200 280C244.183 280 280 244.183 280 200C280 155.817 244.183 120 200 120ZM200 250C172.386 250 150 227.614 150 200C150 172.386 172.386 150 200 150C227.614 150 250 172.386 250 200C250 227.614 227.614 250 200 250Z" fill="white"/>
  <circle cx="200" cy="200" r="30" fill="white"/>
</svg> 