<?xml version="1.0" encoding="UTF-8"?>
<svg width="400" height="400" viewBox="0 0 400 400" fill="none" xmlns="http://www.w3.org/2000/svg">
  <path d="M200 0C89.543 0 0 89.543 0 200C0 310.457 89.543 400 200 400C310.457 400 400 310.457 400 200C400 89.543 310.457 0 200 0ZM200 350C117.157 350 50 282.843 50 200C50 117.157 117.157 50 200 50C282.843 50 350 117.157 350 200C350 282.843 282.843 350 200 350Z" fill="#F71963"/>
  <path d="M200 100C155.817 100 120 135.817 120 180C120 224.183 155.817 260 200 260C244.183 260 280 224.183 280 180C280 135.817 244.183 100 200 100Z" fill="#F71963"/>
</svg> 